<svg width="33" height="31" viewBox="0 0 33 31" fill="none" xmlns="http://www.w3.org/2000/svg">
<path d="M32 30C32 27.1423 24.2788 27.1423 16.5576 27.1423C8.83643 27.1423 1 27.1423 1 24.1788C1 21.3212 8.72119 21.3212 16.4424 21.3212C24.1636 21.3212 31.8848 21.3212 31.8848 18.4635C31.8848 15.6058 24.1636 15.6058 16.4424 15.6058C8.72119 15.6058 1 15.5 1 12.6423C1 9.78467 8.72119 9.78467 16.4424 9.78467C24.1636 9.78467 31.8848 9.78467 31.8848 6.92701C32 3.85766 24.2788 3.85766 16.5576 3.85766C8.83643 3.85766 1 3.85766 1 1" stroke="black" stroke-width="2" stroke-miterlimit="10" stroke-linecap="square" stroke-linejoin="round"/>
</svg>
